<svg xmlns="http://www.w3.org/2000/svg" viewBox="0 0 500 500"><g id="freepik--background-simple--inject-2"><path d="M479.78,249.9c-5.1,43.2-24.83,93.43-64.22,116.5C356,401.27,361,454.9,244.84,478.22a239.4,239.4,0,0,1-51.51,4.86A198,198,0,0,1,168.05,481C94.21,470.23,44.52,418.91,26.29,357,2.3,275.47,50.2,222.13,82,190S137,57.7,251,33.89a230.81,230.81,0,0,1,52.94-5c40.57,1,84.83,14.31,115.45,42.12q3.45,3.13,6.71,6.49C468.65,121.15,486.74,191,479.78,249.9Z" style="fill:#FED495"></path><path d="M479.78,249.9c-5.1,43.2-24.83,93.43-64.22,116.5C356,401.27,361,454.9,244.84,478.22a239.4,239.4,0,0,1-51.51,4.86A198,198,0,0,1,168.05,481C94.21,470.23,44.52,418.91,26.29,357,2.3,275.47,50.2,222.13,82,190S137,57.7,251,33.89a230.81,230.81,0,0,1,52.94-5c40.57,1,84.83,14.31,115.45,42.12q3.45,3.13,6.71,6.49C468.65,121.15,486.74,191,479.78,249.9Z" style="fill:#fff;opacity:0.7000000000000001"></path></g><g id="freepik--Clouds--inject-2"><path d="M232.81,42.56s-6.27-13.06-15.15-20.9-23-5.74-27.16-.52-7.31,19.33-10.44,18.28-14.11-11-23-4.18S155.51,50.39,149.24,53,137.75,46.21,131,50.39s-6.79,12.54-6.79,12.54l-22.9,5.71h177s-6.79-20.86-14.62-27.13-15.15,6.79-20.9,7.32S232.81,42.56,232.81,42.56Z" style="fill:none;stroke:#263238;stroke-linecap:round;stroke-linejoin:round"></path><path d="M424.2,233.11s-4.4-7.41-10.64-11.85-16.14-3.26-19.08-.3-5.14,11-7.34,10.37S377.23,225.11,371,229s-1.1,8.59-5.51,10.07-8.07-3.85-12.84-1.48a8.41,8.41,0,0,0-4.77,7.11L331.8,247.9H456.13s-4.77-11.83-10.28-15.39-10.64,3.85-14.68,4.15S424.2,233.11,424.2,233.11Z" style="fill:none;stroke:#263238;stroke-linecap:round;stroke-linejoin:round"></path><path d="M124.78,290.64s-4.4-7.41-10.64-11.85S98,275.53,95.06,278.5s-5.14,10.95-7.34,10.36-9.91-6.22-16.14-2.37-1.1,8.59-5.51,10.07-8.07-3.85-12.84-1.48a8.41,8.41,0,0,0-4.77,7.11l-16.08,3.24H156.71s-4.77-11.83-10.28-15.38-10.64,3.85-14.68,4.14S124.78,290.64,124.78,290.64Z" style="fill:none;stroke:#263238;stroke-linecap:round;stroke-linejoin:round"></path></g><g id="freepik--plants-2--inject-2"><path d="M43.84,388.78c2.34-.28,6.84-3,6.85-3.06s-2.74-2.41-2.93-2.54c-2.23-1.51-7.42-3.11-9.79-1.25a3.56,3.56,0,0,0-.21,5.3C39.23,388.76,41.84,389,43.84,388.78Z" style="fill:#263238"></path><path d="M53.15,401.07c2.11-.85,5.49-4.41,5.75-4.7a63.64,63.64,0,0,0,6.48,5.39c1.32,1,2.68,1.9,4.05,2.82-.69-.33-1.31-.61-1.4-.64-2.55-.87-8-1-9.77,1.37a3.56,3.56,0,0,0,1.19,5.17c1.83,1.09,4.41.65,6.27-.11s4.84-3.75,5.6-4.55l1.59,1.05c2.56,1.66,5.12,3.3,7.57,5,.87.59,1.7,1.21,2.54,1.82-.62-.29-1.14-.52-1.22-.55-2.55-.87-8-1-9.77,1.38a3.55,3.55,0,0,0,1.19,5.16c1.83,1.09,4.41.65,6.27-.11S84,416.1,85,415.16c.83.65,1.67,1.31,2.45,2,.52.47,1.06.89,1.55,1.39l1.5,1.45c.92.95,1.87,1.93,2.74,2.89.61.66,1.18,1.29,1.76,1.94-.86-.61-2.56-1.75-2.71-1.83-2.39-1.24-7.73-2.23-9.87-.12a3.56,3.56,0,0,0,.4,5.29c1.64,1.36,4.26,1.31,6.21.85,2.16-.52,5.9-3.39,6.36-3.76,1,1.07,1.87,2.11,2.71,3.12.63.73,1.23,1.45,1.8,2.14l1.62-.95c-.65-.76-1.34-1.55-2.07-2.36-1-1.09-2-2.23-3.09-3.39A38.64,38.64,0,0,0,98.89,420c2.18.66,6.58.35,7.14.31.21,1.41.39,2.79.55,4.09.08.69.15,1.34.22,2l1.71-1c-.05-.41-.1-.8-.16-1.22-.2-1.44-.45-3-.71-4.54.54-.18,5-1.71,6.64-3.23,1.47-1.37,3-3.53,2.73-5.64a3.57,3.57,0,0,0-4.19-3.26c-2.95.62-5.07,5.62-5.35,8.29,0,.16,0,1.89,0,3-.12-.64-.22-1.27-.34-1.92-.24-1.31-.51-2.6-.8-4-.16-.67-.32-1.34-.49-2s-.4-1.38-.59-2.07c-.49-1.61-1.07-3.21-1.68-4.81,1.14-.21,5.18-1,6.84-2.15s3.46-3,3.56-5.16a3.57,3.57,0,0,0-3.65-3.86c-3,.17-5.86,4.79-6.55,7.39,0,.16-.32,2.08-.46,3.14-.37-1-.74-1.91-1.16-2.87-1.19-2.77-2.48-5.53-3.75-8.29l-1.16-2.54c.41-.07,5.23-.91,7.1-2.19,1.65-1.14,3.45-3,3.55-5.17a3.56,3.56,0,0,0-3.65-3.85c-3,.16-5.86,4.78-6.54,7.39-.06.19-.46,3-.53,3.67-.84-1.87-1.66-3.73-2.4-5.61a61.71,61.71,0,0,1-2.52-7.74c.19,0,5.22-.89,7.13-2.2,1.66-1.13,3.46-3,3.56-5.17A3.56,3.56,0,0,0,99.31,365c-3,.16-5.86,4.79-6.55,7.39-.05.2-.48,3.18-.52,3.72,0-.15-.1-.3-.13-.46A45,45,0,0,1,91,367.51c-.09-1.5-.09-2.94,0-4.34,1-.07,5.31-.41,7.16-1.4s3.77-2.64,4.1-4.74A3.56,3.56,0,0,0,99,352.8c-3-.17-6.36,4.11-7.32,6.62-.06.14-.44,1.59-.7,2.64,0-.63,0-1.28.07-1.89.13-2.27.39-4.35.63-6.19.15-1,.3-2,.45-2.86.91-.55,4.52-2.81,5.69-4.51s2.12-4.08,1.45-6.1a3.56,3.56,0,0,0-4.79-2.28c-2.75,1.23-3.74,6.58-3.45,9.25,0,.23.85,3.8.89,3.77l.06,0c-.16.84-.33,1.74-.49,2.74-.28,1.83-.59,3.91-.77,6.19a64.87,64.87,0,0,0-.22,7.38,46.92,46.92,0,0,0,.92,8.22l0,.09c-.44-.77-1.72-2.88-1.83-3-1.65-2.12-6.08-5.27-8.92-4.24a3.56,3.56,0,0,0-1.85,5c.92,1.92,3.32,3,5.29,3.37,2.22.45,7-.66,7.39-.75A61.75,61.75,0,0,0,94,384.22c.56,1.54,1.18,3.07,1.82,4.59-.4-.65-.75-1.23-.81-1.31-1.65-2.12-6.08-5.27-8.92-4.24a3.56,3.56,0,0,0-1.85,5c.92,1.92,3.32,3,5.29,3.37s6.1-.46,7.18-.71l.75,1.75c1.22,2.8,2.45,5.58,3.56,8.34.4,1,.75,1.95,1.11,2.92-.35-.58-.65-1.07-.71-1.13-1.64-2.13-6.08-5.27-8.91-4.25a3.56,3.56,0,0,0-1.85,5c.92,1.92,3.32,3,5.29,3.37s5.7-.38,7-.66c.34,1,.68,2,1,3,.17.68.39,1.32.53,2l.45,2c.23,1.3.49,2.64.69,3.92.15.88.27,1.73.39,2.58-.38-1-1.16-2.86-1.25-3a13.8,13.8,0,0,0-5-4.87,3.61,3.61,0,0,0-.44-.66,3.56,3.56,0,0,0-5.29-.4c-2.12,2.14-1.13,7.48.11,9.87.08.14,1,1.58,1.66,2.48-.44-.48-.87-.94-1.34-1.42-.91-1-1.85-1.89-2.86-2.89L90,417.45c-.5-.48-1.09-.93-1.64-1.4-1.29-1.07-2.65-2.09-4-3.09.83-.8,3.76-3.69,4.52-5.56s1.2-4.44.11-6.27a3.55,3.55,0,0,0-5.16-1.2c-2.42,1.79-2.25,7.22-1.39,9.77,0,.16.88,1.92,1.35,2.88-.84-.6-1.68-1.19-2.55-1.76-2.52-1.65-5.12-3.24-7.71-4.84l-2.36-1.48c.3-.29,3.85-3.65,4.7-5.75.76-1.86,1.21-4.44.12-6.27a3.58,3.58,0,0,0-5.17-1.2c-2.42,1.8-2.25,7.23-1.39,9.78.07.19,1.26,2.72,1.59,3.35-1.73-1.09-3.44-2.2-5.09-3.35A62.3,62.3,0,0,1,59.5,396c.14-.13,3.87-3.62,4.74-5.77.76-1.86,1.2-4.44.11-6.27a3.55,3.55,0,0,0-5.16-1.2c-2.42,1.79-2.25,7.22-1.39,9.77.07.2,1.35,2.92,1.62,3.4l-.37-.31a46.72,46.72,0,0,1-5.37-6.15c-.9-1.21-1.69-2.41-2.44-3.6.76-.58,4.21-3.27,5.21-5.11s1.68-4.28.8-6.22a3.56,3.56,0,0,0-5-1.76c-2.6,1.52-3,6.93-2.46,9.56,0,.14.52,1.56.88,2.59-.33-.54-.68-1.1-1-1.62-1.15-2-2.08-3.84-2.89-5.51-.45-1-.84-1.82-1.2-2.63.45-1,2.21-4.84,2.25-6.9s-.48-4.58-2.16-5.89a3.55,3.55,0,0,0-5.25.74c-1.61,2.54.51,7.55,2.23,9.62.15.17,2.8,2.7,2.82,2.65l0-.06c.33.79.69,1.64,1.1,2.56.78,1.68,1.67,3.58,2.78,5.58a62.4,62.4,0,0,0,3.89,6.29,46.4,46.4,0,0,0,5.3,6.34l.07.06c-.78-.4-3-1.45-3.2-1.51-2.54-.87-8-1-9.77,1.37a3.56,3.56,0,0,0,1.19,5.17C48.71,402.27,51.29,401.83,53.15,401.07Z" style="fill:#263238"></path><path d="M90.58,362.74s-1-3.52-1-3.73c-1-2.49-4.47-6.69-7.47-6.45a3.56,3.56,0,0,0-3.1,4.31c.38,2.09,2.41,3.74,4.21,4.64C85.29,362.57,90.57,362.74,90.58,362.74Z" style="fill:#263238"></path><path d="M356.72,393.35c2.29,1,7.87.87,7.87.87s-1.2-3.66-1.3-3.88c-1.23-2.56-5.1-6.79-8.25-6.37a3.76,3.76,0,0,0-3,4.72C352.54,390.87,354.78,392.5,356.72,393.35Z" style="fill:#263238"></path><path d="M358.65,409.52c2.37.34,7.35-1.1,7.75-1.22a65.61,65.61,0,0,0,3,8.36c.68,1.59,1.42,3.16,2.18,4.73-.45-.66-.86-1.25-.93-1.33-1.86-2.15-6.71-5.21-9.64-4a3.76,3.76,0,0,0-1.66,5.35c1.08,2,3.67,2.94,5.77,3.24s6.4-.83,7.52-1.15c.3.6.59,1.2.9,1.8,1.44,2.87,2.89,5.73,4.23,8.58.47,1,.9,2,1.33,3-.4-.59-.75-1.08-.81-1.15-1.86-2.15-6.71-5.21-9.64-4a3.76,3.76,0,0,0-1.67,5.34c1.09,2,3.67,2.95,5.77,3.25s6-.73,7.33-1.1c.41,1,.82,2.09,1.18,3.12.22.7.49,1.37.67,2.09s.4,1.42.59,2.12c.33,1.36.67,2.76,1,4.09.2.93.38,1.82.56,2.71-.46-1-1.39-3-1.49-3.11-1.51-2.4-5.85-6.16-8.93-5.38a3.78,3.78,0,0,0-2.46,5c.77,2.11,3.19,3.46,5.21,4.08,2.24.68,7.18.06,7.8,0,.3,1.47.57,2.91.81,4.28.17,1,.34,2,.49,2.91h2c-.19-1-.4-2.12-.62-3.26-.3-1.5-.64-3.1-1-4.74a42.25,42.25,0,0,0,4.35-2c1.63,1.76,5.8,3.82,6.34,4.09-.57,1.39-1.14,2.74-1.69,4-.29.67-.58,1.31-.86,1.94h2.1c.16-.4.33-.79.5-1.21.58-1.41,1.17-2.93,1.77-4.5.6.12,5.49,1.11,7.77.6,2.07-.47,4.58-1.64,5.5-3.68a3.77,3.77,0,0,0-2.07-5.21c-3-1-7.62,2.42-9.31,4.7-.1.14-1,1.72-1.57,2.73.24-.65.48-1.27.72-1.93.48-1.31.92-2.64,1.4-4.06l.63-2.1c.22-.7.37-1.47.56-2.21.42-1.72.75-3.48,1-5.27,1.15.42,5.25,1.85,7.38,1.7s4.77-.93,6-2.81a3.75,3.75,0,0,0-1.26-5.45c-2.83-1.46-7.89,1.23-9.91,3.23-.12.12-1.41,1.72-2.09,2.62.17-1.08.34-2.15.47-3.24.4-3.16.69-6.36,1-9.56.09-1,.2-1.95.3-2.92.41.15,5.25,1.95,7.63,1.78,2.11-.14,4.77-.92,6-2.8a3.76,3.76,0,0,0-1.26-5.46c-2.83-1.46-7.89,1.23-9.91,3.23-.15.15-2,2.46-2.43,3.07.23-2.15.47-4.29.8-6.39a67.56,67.56,0,0,1,1.83-8.4c.19.08,5.24,2,7.67,1.81,2.12-.15,4.77-.93,6-2.81a3.77,3.77,0,0,0-1.26-5.46c-2.83-1.45-7.9,1.23-9.91,3.24-.16.15-2.14,2.63-2.47,3.11.05-.16.08-.33.13-.49a48.37,48.37,0,0,1,3.33-8c.72-1.41,1.49-2.72,2.27-4,.9.45,5.05,2.46,7.26,2.55s4.85-.4,6.27-2.13a3.76,3.76,0,0,0-.66-5.56c-2.65-1.76-8,.35-10.2,2.12-.12.1-1.24,1.21-2,2,.36-.56.72-1.15,1.07-1.68,1.33-2,2.68-3.76,3.88-5.3.69-.87,1.33-1.64,1.93-2.36,1.12,0,5.62-.16,7.59-1.08s4.12-2.59,4.58-4.78a3.78,3.78,0,0,0-3.15-4.64c-3.16-.34-6.92,4-8.07,6.59-.1.23-1.26,3.91-1.2,3.91h.06c-.59.68-1.23,1.41-1.9,2.23-1.24,1.52-2.62,3.25-4,5.23a66.8,66.8,0,0,0-4.15,6.61,49.13,49.13,0,0,0-3.54,8l0,.11c0-.94,0-3.54,0-3.74-.37-2.82-2.73-8.05-5.86-8.63a3.77,3.77,0,0,0-4.34,3.54c-.18,2.24,1.44,4.48,3,5.9,1.79,1.59,6.74,3.13,7.14,3.25a66,66,0,0,0-2.1,8.64c-.3,1.71-.55,3.43-.79,5.16,0-.81,0-1.53,0-1.63-.36-2.81-2.72-8-5.85-8.62a3.76,3.76,0,0,0-4.34,3.54c-.18,2.24,1.44,4.48,3,5.89s5.8,2.84,6.92,3.19c-.09.67-.17,1.33-.25,2-.39,3.2-.75,6.38-1.21,9.5-.16,1.1-.36,2.17-.55,3.25,0-.72,0-1.32,0-1.41-.36-2.82-2.72-8.05-5.85-8.63a3.77,3.77,0,0,0-4.34,3.55c-.19,2.23,1.44,4.47,3,5.88s5.39,2.7,6.71,3.13c-.23,1.1-.46,2.19-.73,3.25-.21.71-.35,1.41-.6,2.12s-.45,1.4-.67,2.09c-.48,1.31-1,2.67-1.46,3.94-.34.89-.68,1.72-1,2.57.17-1.09.46-3.24.47-3.42a14.72,14.72,0,0,0-2-7.11,4.64,4.64,0,0,0-.06-.83,3.75,3.75,0,0,0-4.6-3.19c-3.07.82-5,6.21-5.17,9,0,.16.1,2,.19,3.14-.15-.67-.29-1.32-.46-2-.32-1.35-.69-2.7-1.07-4.15-.21-.7-.42-1.4-.64-2.11s-.49-1.42-.74-2.14c-.61-1.67-1.3-3.32-2-5,1.19-.29,5.4-1.36,7.09-2.66s3.47-3.4,3.45-5.65a3.76,3.76,0,0,0-4.07-3.85c-3.16.34-5.9,5.38-6.48,8.16,0,.17-.22,2.22-.3,3.34-.45-1-.9-2-1.39-3-1.41-2.85-2.93-5.69-4.43-8.52-.46-.87-.91-1.74-1.36-2.61.42-.1,5.45-1.27,7.34-2.72,1.69-1.29,3.47-3.41,3.46-5.65a3.76,3.76,0,0,0-4.07-3.85c-3.16.34-5.9,5.38-6.48,8.16,0,.21-.31,3.15-.34,3.9-1-1.92-2-3.84-2.85-5.77a65.56,65.56,0,0,1-3.11-8c.2,0,5.46-1.24,7.4-2.73,1.68-1.29,3.47-3.4,3.45-5.64a3.78,3.78,0,0,0-4.07-3.86c-3.16.35-5.9,5.38-6.47,8.16-.05.22-.33,3.38-.34,4-.05-.16-.12-.32-.17-.48a48.16,48.16,0,0,1-1.61-8.46c-.18-1.58-.26-3.1-.3-4.58,1-.12,5.57-.73,7.47-1.88s3.82-3,4.05-5.23a3.77,3.77,0,0,0-3.62-4.28c-3.18,0-6.46,4.7-7.34,7.4,0,.15-.36,1.69-.58,2.83,0-.67,0-1.36,0-2,0-2.41.16-4.61.31-6.56.09-1.11.2-2.11.31-3,.92-.63,4.6-3.23,5.73-5.09s2-4.42,1.18-6.51a3.77,3.77,0,0,0-5.18-2.13c-2.82,1.46-3.57,7.15-3.1,10,0,.24,1.11,4,1.16,3.92l.05,0c-.12.89-.25,1.86-.36,2.91-.19,2-.39,4.15-.45,6.57a67.31,67.31,0,0,0,.19,7.8,48.27,48.27,0,0,0,1.44,8.6l0,.1c-.5-.78-2-2.93-2.1-3.09-1.86-2.14-6.71-5.2-9.64-4a3.77,3.77,0,0,0-1.67,5.35C354,408.24,356.55,409.21,358.65,409.52Z" style="fill:#263238"></path><path d="M413.19,394.57c.05,0,1-3.71,1.05-3.95.39-2.81-.51-8.48-3.37-9.86a3.76,3.76,0,0,0-5.12,2.27c-.77,2.11.2,4.69,1.36,6.48C408.46,391.6,413.19,394.57,413.19,394.57Z" style="fill:#263238"></path></g><g id="freepik--plant-1--inject-2"><path d="M46.15,122.06c4.12,1.8,14.2,1.57,14.21,1.57s-2.17-6.6-2.36-7c-2.21-4.62-9.21-12.26-14.9-11.49a6.78,6.78,0,0,0-5.45,8.51C38.59,117.6,42.64,120.53,46.15,122.06Z" style="fill:#263238"></path><path d="M49.63,151.26c4.27.62,13.27-2,14-2.2a120.16,120.16,0,0,0,5.45,15.1c1.24,2.87,2.57,5.71,4,8.55-.82-1.2-1.56-2.27-1.68-2.41-3.36-3.88-12.12-9.4-17.41-7.15a6.79,6.79,0,0,0-3,9.65c1.95,3.55,6.63,5.31,10.42,5.86s11.56-1.51,13.59-2.08c.54,1.08,1.07,2.17,1.61,3.25,2.61,5.19,5.23,10.35,7.64,15.5.86,1.81,1.63,3.63,2.41,5.44-.73-1.07-1.35-2-1.46-2.08-3.36-3.88-12.12-9.4-17.41-7.16a6.8,6.8,0,0,0-3,9.66c2,3.55,6.63,5.31,10.42,5.86s10.81-1.31,13.23-2c.74,1.88,1.49,3.76,2.12,5.62.41,1.28.89,2.48,1.22,3.79s.72,2.56,1.07,3.82c.59,2.45,1.21,5,1.72,7.39.37,1.67.7,3.27,1,4.88-.82-1.81-2.52-5.33-2.69-5.61-2.73-4.34-10.56-11.12-16.12-9.71a6.8,6.8,0,0,0-4.44,9.09c1.39,3.81,5.74,6.25,9.41,7.37,4,1.24,13,.11,14.07,0,.54,2.67,1,5.27,1.46,7.73.32,1.82.62,3.57.88,5.25h3.58q-.51-2.81-1.11-5.87c-.54-2.72-1.16-5.6-1.83-8.56a76.23,76.23,0,0,0,7.86-3.69c2.94,3.18,10.47,6.91,11.44,7.38-1,2.52-2,5-3,7.25-.53,1.21-1,2.36-1.55,3.49h3.78c.3-.71.6-1.42.9-2.17,1-2.55,2.13-5.3,3.2-8.14,1.08.23,9.92,2,14,1.09,3.74-.84,8.26-3,9.93-6.65a6.79,6.79,0,0,0-3.75-9.39c-5.44-1.83-13.75,4.35-16.8,8.48-.18.24-1.83,3.1-2.84,4.92.43-1.16.86-2.28,1.29-3.48.87-2.37,1.67-4.76,2.54-7.33.37-1.25.75-2.52,1.14-3.8s.67-2.64,1-4c.74-3.11,1.34-6.3,1.87-9.52,2.07.75,9.48,3.33,13.32,3.06s8.62-1.67,10.83-5.07a6.79,6.79,0,0,0-2.28-9.85c-5.11-2.63-14.26,2.22-17.89,5.84-.23.22-2.55,3.11-3.79,4.72.31-1.94.62-3.87.86-5.85.71-5.69,1.25-11.48,1.81-17.25.17-1.76.36-3.52.55-5.28.74.27,9.48,3.53,13.78,3.23,3.82-.27,8.61-1.68,10.82-5.07a6.8,6.8,0,0,0-2.28-9.86c-5.11-2.63-14.26,2.22-17.89,5.84-.27.27-3.6,4.44-4.4,5.54.41-3.88.86-7.75,1.45-11.54A120.39,120.39,0,0,1,138,148c.34.13,9.45,3.56,13.85,3.26,3.82-.27,8.62-1.68,10.83-5.07a6.81,6.81,0,0,0-2.28-9.86c-5.11-2.63-14.26,2.22-17.89,5.84-.29.28-3.87,4.76-4.46,5.62.09-.29.14-.59.23-.88a87.39,87.39,0,0,1,6-14.35c1.31-2.56,2.7-4.93,4.1-7.2,1.64.81,9.13,4.45,13.12,4.61,3.83.15,8.75-.72,11.32-3.85a6.79,6.79,0,0,0-1.19-10c-4.78-3.18-14.41.64-18.42,3.83-.22.18-2.24,2.19-3.69,3.68.65-1,1.3-2.08,1.94-3,2.4-3.62,4.83-6.79,7-9.57,1.24-1.58,2.4-3,3.5-4.27,2,0,10.14-.29,13.69-2s7.43-4.67,8.27-8.64a6.79,6.79,0,0,0-5.68-8.36c-5.71-.62-12.5,7.21-14.58,11.89-.18.41-2.27,7.06-2.17,7.06h.12c-1.08,1.23-2.22,2.56-3.44,4-2.24,2.75-4.74,5.87-7.23,9.45a120.59,120.59,0,0,0-7.48,11.93,88.08,88.08,0,0,0-6.4,14.4c0,.06,0,.12-.05.18,0-1.68-.05-6.39-.1-6.75-.65-5.08-4.92-14.53-10.57-15.57a6.79,6.79,0,0,0-7.83,6.39c-.33,4,2.59,8.09,5.45,10.64,3.22,2.88,12.17,5.66,12.88,5.88A119,119,0,0,0,133,162.89c-.55,3.07-1,6.18-1.42,9.31,0-1.46,0-2.76-.08-2.94-.66-5.09-4.92-14.53-10.57-15.57a6.8,6.8,0,0,0-7.84,6.39c-.33,4,2.6,8.09,5.46,10.64s10.47,5.12,12.49,5.76c-.15,1.2-.31,2.4-.45,3.6-.69,5.76-1.35,11.52-2.18,17.14-.29,2-.64,3.92-1,5.87,0-1.3,0-2.38-.07-2.55-.66-5.09-4.93-14.52-10.57-15.57a6.8,6.8,0,0,0-7.84,6.39c-.33,4,2.6,8.09,5.45,10.64s9.74,4.87,12.13,5.64c-.42,2-.83,4-1.33,5.87-.37,1.29-.63,2.55-1.07,3.83l-1.22,3.77c-.86,2.37-1.74,4.83-2.64,7.12-.61,1.6-1.23,3.11-1.84,4.63.31-2,.84-5.83.84-6.16a26.43,26.43,0,0,0-3.53-12.84,8.41,8.41,0,0,0-.1-1.5,6.8,6.8,0,0,0-8.31-5.77c-5.55,1.48-9.07,11.22-9.33,16.34,0,.3.18,3.6.34,5.68-.28-1.21-.54-2.38-.84-3.62-.58-2.46-1.24-4.89-1.93-7.51l-1.15-3.8c-.35-1.27-.89-2.57-1.34-3.88-1.1-3-2.35-6-3.69-9,2.15-.51,9.75-2.45,12.81-4.79s6.26-6.15,6.23-10.21a6.79,6.79,0,0,0-7.34-7c-5.71.62-10.67,9.71-11.7,14.73-.07.32-.41,4-.55,6-.82-1.78-1.62-3.57-2.51-5.35-2.55-5.14-5.29-10.26-8-15.38-.83-1.57-1.64-3.14-2.46-4.72.77-.17,9.86-2.28,13.27-4.9,3-2.33,6.27-6.15,6.24-10.2a6.8,6.8,0,0,0-7.34-7c-5.71.62-10.67,9.71-11.7,14.74-.08.37-.56,5.68-.62,7-1.79-3.46-3.55-6.93-5.15-10.42A120.21,120.21,0,0,1,65,149c.36-.08,9.85-2.23,13.36-4.92,3-2.33,6.26-6.15,6.23-10.2a6.8,6.8,0,0,0-7.34-7c-5.71.62-10.67,9.72-11.7,14.74-.08.39-.6,6.1-.61,7.14-.09-.28-.22-.57-.3-.86a87.43,87.43,0,0,1-2.91-15.28c-.32-2.86-.46-5.6-.55-8.27,1.81-.22,10.07-1.32,13.49-3.39s6.9-5.42,7.31-9.46a6.79,6.79,0,0,0-6.53-7.72c-5.74,0-11.66,8.49-13.25,13.36-.08.27-.66,3.06-1,5.1,0-1.2-.06-2.45,0-3.6,0-4.35.28-8.32.55-11.84.17-2,.36-3.81.56-5.5,1.67-1.14,8.31-5.83,10.35-9.18s3.63-8,2.14-11.76a6.81,6.81,0,0,0-9.36-3.85c-5.1,2.64-6.44,12.91-5.6,18,.08.44,2,7.14,2.09,7.09l.1-.07c-.23,1.62-.45,3.36-.65,5.26-.35,3.52-.71,7.5-.81,11.86a119,119,0,0,0,.33,14.08,89.29,89.29,0,0,0,2.61,15.54l.06.19c-.91-1.42-3.57-5.31-3.8-5.58-3.36-3.88-12.12-9.4-17.41-7.16a6.8,6.8,0,0,0-3,9.66C41.16,149,45.84,150.71,49.63,151.26Z" style="fill:#263238"></path><path d="M148.11,124.28c.09,0,1.84-6.7,1.9-7.14.7-5.08-.92-15.31-6.09-17.81a6.79,6.79,0,0,0-9.24,4.1c-1.39,3.81.37,8.48,2.45,11.7C139.57,118.9,148.11,124.27,148.11,124.28Z" style="fill:#263238"></path></g><g id="freepik--List--inject-2"><rect x="93.93" y="154.95" width="235.65" height="306.2" rx="11.79" style="fill:#263238"></rect><rect x="105.2" y="173.05" width="213.1" height="273.57" style="fill:#fff;stroke:#263238;stroke-linecap:round;stroke-linejoin:round"></rect><path d="M239.82,148.77a5.76,5.76,0,0,1-4.71-9,20.19,20.19,0,1,0-34,.31,5.7,5.7,0,0,1-4.91,8.69h-35.1L170.55,176h94.88l9.49-27.25ZM218,137.16a7.07,7.07,0,1,1,7.06-7.07A7.08,7.08,0,0,1,218,137.16Z" style="fill:#FED495;stroke:#263238;stroke-linecap:round;stroke-linejoin:round"></path><path d="M138.25,233.63l4.36-23.07h5.81l4.3,23.07H148l-.77-4.87h-3.39l-.8,4.87Zm6.06-7.92h2.45l-1.22-9Z"></path><path d="M154.82,233.63V210.56h5.84a11.84,11.84,0,0,1,4.7.75,4.42,4.42,0,0,1,2.36,2.37,10.67,10.67,0,0,1,.69,4.17v8.37a11,11,0,0,1-.69,4.23,4.47,4.47,0,0,1-2.35,2.41,11.39,11.39,0,0,1-4.65.77Zm5.1-3.54h.8a3.1,3.1,0,0,0,1.68-.34,1.53,1.53,0,0,0,.64-1,10.09,10.09,0,0,0,.13-1.71V217a6.78,6.78,0,0,0-.16-1.66,1.38,1.38,0,0,0-.67-.91,3.57,3.57,0,0,0-1.65-.28h-.77Z"></path><path d="M174.36,233.63l-4.16-23.07h4.36L177,226.22l2.3-15.66H184l-4.22,23.07Z"></path><path d="M184.27,233.63l4.36-23.07h5.81l4.3,23.07H194l-.77-4.87h-3.39l-.8,4.87Zm6.07-7.92h2.45l-1.23-9Z"></path><path d="M200.84,233.63V210.56h3.59l4.73,11.1v-11.1h4.22v23.07h-3.45l-4.73-12v12Z"></path><path d="M218.9,233.63V214.35h-3.47v-3.79h12v3.79H224v19.28Z"></path><path d="M227.36,233.63l4.35-23.07h5.81l4.3,23.07h-4.69l-.77-4.87H233l-.8,4.87Zm6.06-7.92h2.45l-1.22-9Z"></path><path d="M249.8,234a6.34,6.34,0,0,1-3.77-1,5.39,5.39,0,0,1-2-2.8,13.62,13.62,0,0,1-.58-4.18v-7.74a13.14,13.14,0,0,1,.62-4.25,5.29,5.29,0,0,1,2.15-2.77,7.56,7.56,0,0,1,4.15-1,8,8,0,0,1,4,.86,4.88,4.88,0,0,1,2.09,2.36,9.15,9.15,0,0,1,.63,3.53v1.48h-5v-1.88a8.27,8.27,0,0,0-.1-1.36,1.78,1.78,0,0,0-.45-1,1.5,1.5,0,0,0-1.16-.39,1.47,1.47,0,0,0-1.19.44,2.12,2.12,0,0,0-.47,1.1,8.66,8.66,0,0,0-.1,1.37v10.68a5.91,5.91,0,0,0,.16,1.43,2.23,2.23,0,0,0,.56,1.09,1.94,1.94,0,0,0,2.41,0,2.22,2.22,0,0,0,.6-1.11,6.13,6.13,0,0,0,.17-1.45v-2.71h-2.08v-3h6.67v12h-3.37l-.28-1.91a4.16,4.16,0,0,1-1.34,1.61A4,4,0,0,1,249.8,234Z"></path><path d="M260.36,233.63V210.56h10.37V214h-5.27v5.73h4v3.53h-4v6.89h5.33v3.45Z"></path><path d="M279.22,234a7.7,7.7,0,0,1-3.62-.77,4.9,4.9,0,0,1-2.19-2.38,10.84,10.84,0,0,1-.83-4.17l4.36-.66a10.61,10.61,0,0,0,.27,2.4,2.73,2.73,0,0,0,.68,1.31,1.57,1.57,0,0,0,1.07.39,1,1,0,0,0,1-.54,2.78,2.78,0,0,0,.24-1.14,4.12,4.12,0,0,0-.68-2.4,10.47,10.47,0,0,0-1.85-2l-2-1.74a11.2,11.2,0,0,1-2.2-2.52,6.35,6.35,0,0,1-.9-3.49,5.69,5.69,0,0,1,1.74-4.48,6.8,6.8,0,0,1,4.72-1.56,6.08,6.08,0,0,1,3,.63,4.36,4.36,0,0,1,1.71,1.64,6.87,6.87,0,0,1,.8,2.13,14,14,0,0,1,.24,2.15l-4.39.55a16.58,16.58,0,0,0-.13-1.78,2.33,2.33,0,0,0-.41-1.17,1.12,1.12,0,0,0-1-.41,1.1,1.1,0,0,0-1,.59,2.57,2.57,0,0,0-.32,1.2,3.37,3.37,0,0,0,.61,2.09,11.81,11.81,0,0,0,1.61,1.7l1.91,1.68a13,13,0,0,1,2.54,2.9,7.24,7.24,0,0,1,1,4,5.84,5.84,0,0,1-.74,2.94,5.34,5.34,0,0,1-2.09,2.1A6.4,6.4,0,0,1,279.22,234Z"></path><circle cx="145.81" cy="277.72" r="20.04" style="fill:#fff;stroke:#263238;stroke-miterlimit:10;stroke-width:4px"></circle><path d="M147.24,286.28a4.68,4.68,0,0,1-3.49-1.62L135,274.39a4.65,4.65,0,0,1,7.06-6.05l5.35,6.24,18-20a4.65,4.65,0,0,1,3.46-1.54,4.65,4.65,0,0,1,3.46,7.75l-21.52,24a4.65,4.65,0,0,1-3.45,1.54Z" style="fill:#FED495"></path><path d="M168.79,254.53a3.12,3.12,0,0,1,2.1.8,3.16,3.16,0,0,1,.24,4.45l-21.51,24a3.17,3.17,0,0,1-2.34,1h0a3.13,3.13,0,0,1-2.35-1.1l-8.8-10.27a3.15,3.15,0,0,1,4.78-4.09l6.46,7.54,19.11-21.29a3.17,3.17,0,0,1,2.35-1m0-3h0a6.17,6.17,0,0,0-4.58,2l-16.83,18.74-4.24-4.95a6.15,6.15,0,1,0-9.33,8l8.8,10.26a6.13,6.13,0,0,0,4.59,2.15h.08a6.13,6.13,0,0,0,4.57-2l21.51-24a6.07,6.07,0,0,0,1.57-4.43,6.14,6.14,0,0,0-6.14-5.82Z" style="fill:#263238"></path><circle cx="145.81" cy="333.73" r="20.04" style="fill:#fff;stroke:#263238;stroke-miterlimit:10;stroke-width:4px"></circle><path d="M147.24,342.29a4.64,4.64,0,0,1-3.49-1.62L135,330.4a4.65,4.65,0,0,1,7.06-6l5.35,6.25,18-20a4.65,4.65,0,0,1,3.46-1.54,4.65,4.65,0,0,1,3.46,7.75l-21.52,24a4.65,4.65,0,0,1-3.45,1.54Z" style="fill:#FED495"></path><path d="M168.79,310.54a3.15,3.15,0,0,1,2.34,5.25l-21.51,24a3.17,3.17,0,0,1-2.34,1h0a3.13,3.13,0,0,1-2.35-1.1l-8.8-10.26a3.15,3.15,0,1,1,4.78-4.1l6.46,7.54,19.11-21.29a3.17,3.17,0,0,1,2.35-1m0-3h0a6.17,6.17,0,0,0-4.58,2l-16.83,18.74-4.24-4.94a6.15,6.15,0,1,0-9.33,8l8.8,10.27a6.15,6.15,0,0,0,4.59,2.14h.08a6.13,6.13,0,0,0,4.57-2l21.51-23.95a6.15,6.15,0,0,0-.46-8.69,6.18,6.18,0,0,0-4.11-1.57Z" style="fill:#263238"></path><circle cx="145.81" cy="389.74" r="20.04" transform="matrix(0.53, -0.85, 0.85, 0.53, -261.93, 306.64)" style="fill:#fff;stroke:#263238;stroke-miterlimit:10;stroke-width:4px"></circle><path d="M147.24,398.3a4.61,4.61,0,0,1-3.49-1.62L135,386.42a4.65,4.65,0,0,1,7.06-6.06l5.35,6.25,18-20a4.65,4.65,0,0,1,3.46-1.54,4.65,4.65,0,0,1,3.46,7.76l-21.52,23.95a4.65,4.65,0,0,1-3.45,1.54Z" style="fill:#FED495"></path><path d="M168.79,366.55a3.15,3.15,0,0,1,2.34,5.25l-21.51,24a3.17,3.17,0,0,1-2.34,1h0a3.13,3.13,0,0,1-2.35-1.1l-8.8-10.26a3.15,3.15,0,1,1,4.78-4.1l6.46,7.54,19.11-21.28a3.15,3.15,0,0,1,2.35-1.05m0-3h0a6.21,6.21,0,0,0-4.58,2l-16.83,18.74-4.24-4.94a6.13,6.13,0,0,0-4.67-2.15,6.14,6.14,0,0,0-4.66,10.15l8.8,10.27a6.15,6.15,0,0,0,4.59,2.14h.08a6.13,6.13,0,0,0,4.57-2l21.51-23.95a6.15,6.15,0,0,0-4.57-10.26Z" style="fill:#263238"></path><line x1="184.55" y1="277.56" x2="281.02" y2="277.56" style="fill:none;stroke:#263238;stroke-linecap:round;stroke-linejoin:round"></line><line x1="176.46" y1="277.56" x2="181.44" y2="277.56" style="fill:none;stroke:#263238;stroke-linecap:round;stroke-linejoin:round"></line><line x1="212.56" y1="337.3" x2="281.02" y2="337.3" style="fill:none;stroke:#263238;stroke-linecap:round;stroke-linejoin:round"></line><line x1="176.46" y1="337.3" x2="204.47" y2="337.3" style="fill:none;stroke:#263238;stroke-linecap:round;stroke-linejoin:round"></line><line x1="269.19" y1="391.45" x2="281.02" y2="391.45" style="fill:none;stroke:#263238;stroke-linecap:round;stroke-linejoin:round"></line><line x1="176.46" y1="391.45" x2="256.74" y2="391.45" style="fill:none;stroke:#263238;stroke-linecap:round;stroke-linejoin:round"></line></g><g id="freepik--hot-air-balloon--inject-2"><path d="M349.87,303.13h57.49a0,0,0,0,1,0,0v42.71a7,7,0,0,1-7,7H356.85a7,7,0,0,1-7-7V303.13A0,0,0,0,1,349.87,303.13Z" style="fill:#FED495;stroke:#263238;stroke-linecap:round;stroke-linejoin:round"></path><line x1="357.32" y1="312.13" x2="357.32" y2="317.92" style="fill:none;stroke:#263238;stroke-linecap:round;stroke-linejoin:round"></line><line x1="360.16" y1="312.13" x2="360.16" y2="317.92" style="fill:none;stroke:#263238;stroke-linecap:round;stroke-linejoin:round"></line><line x1="363" y1="312.13" x2="363" y2="317.92" style="fill:none;stroke:#263238;stroke-linecap:round;stroke-linejoin:round"></line><line x1="364.93" y1="319.84" x2="364.93" y2="325.63" style="fill:none;stroke:#263238;stroke-linecap:round;stroke-linejoin:round"></line><line x1="367.77" y1="319.84" x2="367.77" y2="325.63" style="fill:none;stroke:#263238;stroke-linecap:round;stroke-linejoin:round"></line><line x1="370.61" y1="319.84" x2="370.61" y2="325.63" style="fill:none;stroke:#263238;stroke-linecap:round;stroke-linejoin:round"></line><line x1="357.32" y1="328.26" x2="357.32" y2="334.05" style="fill:none;stroke:#263238;stroke-linecap:round;stroke-linejoin:round"></line><line x1="360.16" y1="328.26" x2="360.16" y2="334.05" style="fill:none;stroke:#263238;stroke-linecap:round;stroke-linejoin:round"></line><line x1="363" y1="328.26" x2="363" y2="334.05" style="fill:none;stroke:#263238;stroke-linecap:round;stroke-linejoin:round"></line><line x1="363.06" y1="320.1" x2="357.26" y2="320.1" style="fill:none;stroke:#263238;stroke-linecap:round;stroke-linejoin:round"></line><line x1="363.06" y1="322.94" x2="357.26" y2="322.94" style="fill:none;stroke:#263238;stroke-linecap:round;stroke-linejoin:round"></line><line x1="363.06" y1="325.78" x2="357.26" y2="325.78" style="fill:none;stroke:#263238;stroke-linecap:round;stroke-linejoin:round"></line><line x1="370.77" y1="312.28" x2="364.97" y2="312.28" style="fill:none;stroke:#263238;stroke-linecap:round;stroke-linejoin:round"></line><line x1="370.77" y1="315.13" x2="364.97" y2="315.13" style="fill:none;stroke:#263238;stroke-linecap:round;stroke-linejoin:round"></line><line x1="370.77" y1="317.97" x2="364.97" y2="317.97" style="fill:none;stroke:#263238;stroke-linecap:round;stroke-linejoin:round"></line><line x1="390.04" y1="327.47" x2="390.04" y2="333.26" style="fill:none;stroke:#263238;stroke-linecap:round;stroke-linejoin:round"></line><line x1="392.88" y1="327.47" x2="392.88" y2="333.26" style="fill:none;stroke:#263238;stroke-linecap:round;stroke-linejoin:round"></line><line x1="395.72" y1="327.47" x2="395.72" y2="333.26" style="fill:none;stroke:#263238;stroke-linecap:round;stroke-linejoin:round"></line><line x1="397.65" y1="335.18" x2="397.65" y2="340.97" style="fill:none;stroke:#263238;stroke-linecap:round;stroke-linejoin:round"></line><line x1="400.49" y1="335.18" x2="400.49" y2="340.97" style="fill:none;stroke:#263238;stroke-linecap:round;stroke-linejoin:round"></line><line x1="403.33" y1="335.18" x2="403.33" y2="340.97" style="fill:none;stroke:#263238;stroke-linecap:round;stroke-linejoin:round"></line><line x1="390.04" y1="343.6" x2="390.04" y2="349.4" style="fill:none;stroke:#263238;stroke-linecap:round;stroke-linejoin:round"></line><line x1="392.88" y1="343.6" x2="392.88" y2="349.4" style="fill:none;stroke:#263238;stroke-linecap:round;stroke-linejoin:round"></line><line x1="395.72" y1="343.6" x2="395.72" y2="349.4" style="fill:none;stroke:#263238;stroke-linecap:round;stroke-linejoin:round"></line><line x1="395.78" y1="335.44" x2="389.98" y2="335.44" style="fill:none;stroke:#263238;stroke-linecap:round;stroke-linejoin:round"></line><line x1="395.78" y1="338.28" x2="389.98" y2="338.28" style="fill:none;stroke:#263238;stroke-linecap:round;stroke-linejoin:round"></line><line x1="395.78" y1="341.12" x2="389.98" y2="341.12" style="fill:none;stroke:#263238;stroke-linecap:round;stroke-linejoin:round"></line><line x1="403.49" y1="327.63" x2="397.69" y2="327.63" style="fill:none;stroke:#263238;stroke-linecap:round;stroke-linejoin:round"></line><line x1="403.49" y1="330.47" x2="397.69" y2="330.47" style="fill:none;stroke:#263238;stroke-linecap:round;stroke-linejoin:round"></line><line x1="403.49" y1="333.31" x2="397.69" y2="333.31" style="fill:none;stroke:#263238;stroke-linecap:round;stroke-linejoin:round"></line><path d="M407.27,306H350a2.72,2.72,0,0,1-2.72-2.72h0a2.72,2.72,0,0,1,2.72-2.72h57.31a2.72,2.72,0,0,1,2.72,2.72h0A2.72,2.72,0,0,1,407.27,306Z" style="fill:#FED495;stroke:#263238;stroke-linecap:round;stroke-linejoin:round"></path><line x1="356.18" y1="256.89" x2="349.96" y2="300.59" style="fill:#fff;stroke:#263238;stroke-linecap:round;stroke-linejoin:round"></line><line x1="400.91" y1="256.89" x2="407.27" y2="300.59" style="fill:#fff;stroke:#263238;stroke-linecap:round;stroke-linejoin:round"></line><path d="M468.31,119.55A89.7,89.7,0,1,0,320.2,187.61l-.4,0s14.42,14.66,18,18.41,12.45,13.64,14.41,18.42a109.56,109.56,0,0,1,3.94,13.64h44.56a109.56,109.56,0,0,1,3.94-13.64c2-4.78,10.81-14.67,14.41-18.42s18-18.41,18-18.41H437A89.51,89.51,0,0,0,468.31,119.55Z" style="fill:#FED495;stroke:#263238;stroke-linecap:round;stroke-linejoin:round"></path><path d="M330.84,198.88c3,3,5.68,5.81,7,7.17.72.76,1.67,1.78,2.73,2.94h75.8c1.06-1.16,2-2.18,2.73-2.94,1.31-1.36,4-4.16,7-7.17Z" style="fill:#fff;stroke:#263238;stroke-linecap:round;stroke-linejoin:round"></path><path d="M378.61,29.85a89.26,89.26,0,0,0-41.89,10.38h83.79A89.27,89.27,0,0,0,378.61,29.85Z" style="fill:#fff;stroke:#263238;stroke-linecap:round;stroke-linejoin:round"></path><path d="M288.92,119.55a89.35,89.35,0,0,0,23.65,60.67H444.66a89.67,89.67,0,0,0-8.05-129.09h-116A89.51,89.51,0,0,0,288.92,119.55Z" style="fill:#fff;stroke:#263238;stroke-linecap:round;stroke-linejoin:round"></path><rect x="356.18" y="238.11" width="44.74" height="18.78" style="fill:#fff;stroke:#263238;stroke-linecap:round;stroke-linejoin:round"></rect><path d="M324,76.43a89.53,89.53,0,0,0-9.9,33.05c-6.24,60.47,41.77,94.14,41.77,94.14" style="fill:none;stroke:#263238;stroke-linecap:round;stroke-linejoin:round"></path><path d="M378.61,29.85s-31.12,10.23-50.3,39.36" style="fill:none;stroke:#263238;stroke-linecap:round;stroke-linejoin:round"></path><path d="M370.07,167.24a382.35,382.35,0,0,0,8.27,44.48" style="fill:none;stroke:#263238;stroke-linecap:round;stroke-linejoin:round"></path><path d="M380.21,42.77s-18.76,44.77-10.79,118.81" style="fill:none;stroke:#263238;stroke-linecap:round;stroke-linejoin:round"></path><path d="M437.36,150.69c-7.2,39.37-30.34,54.8-30.34,54.8" style="fill:none;stroke:#263238;stroke-linecap:round;stroke-linejoin:round"></path><path d="M413.37,49.68c10.72,12.33,25.29,35.91,26.07,73.51a140.9,140.9,0,0,1-1,20.7" style="fill:none;stroke:#263238;stroke-linecap:round;stroke-linejoin:round"></path><path d="M402,39a58.15,58.15,0,0,1,8.35,7.38" style="fill:none;stroke:#263238;stroke-linecap:round;stroke-linejoin:round"></path><path d="M360.89,207.36l.14.17a30.9,30.9,0,0,1,6.71,19.27v4.87" style="fill:none;stroke:#263238;stroke-linecap:round;stroke-linejoin:round"></path><line x1="378.88" y1="219.48" x2="378.88" y2="231.21" style="fill:none;stroke:#263238;stroke-linecap:round;stroke-linejoin:round"></line><path d="M404.43,209.43s-4.19,2.09-6.7,8.38a52.38,52.38,0,0,0-2.93,14.24" style="fill:none;stroke:#263238;stroke-linecap:round;stroke-linejoin:round"></path><polygon points="396.54 281.1 405.61 287.31 399.21 301.43 380.39 301.43 380 281.51 390.96 279.3 396.54 281.1" style="fill:#fff;stroke:#263238;stroke-linecap:round;stroke-linejoin:round"></polygon><polygon points="380 281.51 379.74 282.1 371.76 300.81 380.31 300.63 380 281.51" style="fill:#fff;stroke:#263238;stroke-linecap:round;stroke-linejoin:round"></polygon><path d="M391.36,267.08a9.89,9.89,0,0,0-2,2.2c-.42.88-.48,2.05-.91,2.73s-1.32.64-1.36,1.19.62,1,.62,1-.34,1.82-.46,2.91a1.74,1.74,0,0,0,1.2,1.8,7.88,7.88,0,0,0,1.6.29l-.42,1.78,1.8,3.65,5.08-4.1.56-2.58-.19-2s2.29-2.15,2-4.46-1.84-3.69-3.77-4.79A3.52,3.52,0,0,0,391.36,267.08Z" style="fill:#fff;stroke:#263238;stroke-linecap:round;stroke-linejoin:round"></path><path d="M395.9,276a.88.88,0,0,1-.79.39,1.67,1.67,0,0,1-.9-.57,3.9,3.9,0,0,1-1.42,2.46" style="fill:none;stroke:#263238;stroke-linecap:round;stroke-linejoin:round"></path><path d="M390.63,274.85s-.84,1.08-1.89.63" style="fill:none;stroke:#263238;stroke-linecap:round;stroke-linejoin:round"></path><path d="M391.4,270.06s-.34-.67-1.34-.33" style="fill:none;stroke:#263238;stroke-linecap:round;stroke-linejoin:round"></path><path d="M389.27,271.93c-.11.28-.1.56,0,.61s.34-.12.46-.4.11-.55,0-.61S389.39,271.65,389.27,271.93Z" style="fill:#263238"></path><path d="M390,279.23a2.51,2.51,0,0,0,.83,0c.33-.1.79-.19.79-.19l-2,2Z" style="fill:#263238;stroke:#263238;stroke-linecap:round;stroke-linejoin:round"></path><path d="M391.36,267.08s1.64-.6,2.48.13.92,1.34.06,2.13-1.09,1.79-.76,2.26,1.65,1.31,1.69,1.67a2.82,2.82,0,0,0,.25.77s.83-.94,1.3-.36a1.89,1.89,0,0,1-.48,2.28l1.15,2a10.25,10.25,0,0,1,2-3.26c1.3-1.26,3.06-4.54,2.27-6.07s-2.42-2-2.7-2.56.16-1.51-1.21-2.23-2.42.08-3.13.06-.6-1-1.91-.7-2.52.9-2.62,2S391.36,267.08,391.36,267.08Z" style="fill:#263238;stroke:#263238;stroke-linecap:round;stroke-linejoin:round"></path><path d="M380.71,298.58l-2.53-1.72a10.22,10.22,0,0,0-1.93,1.33,6.37,6.37,0,0,0-.53,2.52,22.67,22.67,0,0,0,3.58.27S379.66,298.51,380.71,298.58Z" style="fill:#fff;stroke:#263238;stroke-linecap:round;stroke-linejoin:round"></path><path d="M398.74,290.29l-2.11,11.85s-15.26-3.56-15.92-3.56a1.76,1.76,0,0,0-1.41,2.4c.42,1,19.31,9.18,19.31,9.18s8-20.69,7.9-22-5.4-3.38-5.93-3.51" style="fill:#fff;stroke:#263238;stroke-linecap:round;stroke-linejoin:round"></path></g><g id="freepik--Icon--inject-2"><path d="M402.84,161.46c-3.84,0-8.19,0-12.29-.06a46,46,0,0,1-29-10.54l-1.4-1.16a1.52,1.52,0,0,1-.54-1.26l3.27-45.76a1.48,1.48,0,0,1,1-1.3c.11,0,10.8-3.95,17.39-9,3.1-2.4,10.16-9.11,8.72-19.7-.6-4.39-.28-7.12,1-8.59a3.26,3.26,0,0,1,2.53-1.14c1.78,0,3.95,1.27,6.47,3.79,5.28,5.28,5.65,11.52,5.58,17-.08,6.25-2.52,13-3.9,16.3,7.32.28,25.69,1.1,28.67,2.38,2.43,1,4.29,4.12,5.21,6.65,1.13,3.08,1.21,6,.21,8a16.31,16.31,0,0,1-3.66,4.9,9.27,9.27,0,0,1-.08,7.71,28,28,0,0,1-3.18,5,10.49,10.49,0,0,1,1.44,7.69c-.79,3.55-3.78,6.41-5.31,7.68a7.24,7.24,0,0,1-1.47,5.94,12.56,12.56,0,0,1-8.91,5.28C414.24,161.29,413.25,161.46,402.84,161.46Z" style="fill:#fff"></path><path d="M393.55,64.42c1.44,0,3.38,1.32,5.41,3.35,4.67,4.67,5.21,10.1,5.14,15.88-.11,8.3-4.67,17.74-4.67,17.74s27.08.93,30.35,2.33,6.53,8.87,4.67,12.61a12.84,12.84,0,0,1-4.21,5.13s2.34,3.74.47,7.47a23.32,23.32,0,0,1-3.73,5.61,9.28,9.28,0,0,1,1.86,7.47c-.93,4.2-5.6,7.47-5.6,7.47s1.4,2.33-.93,5.6a11.12,11.12,0,0,1-7.94,4.67c-.93.15-5.65.21-11.53.21-3.85,0-8.18,0-12.28-.06a44.4,44.4,0,0,1-28-10.2l-1.39-1.16,3.26-45.75s10.93-4,17.8-9.26c4.63-3.57,10.68-10.82,9.28-21.09-.79-5.8.21-8,2.06-8m0-3h0a4.77,4.77,0,0,0-3.66,1.65c-1.62,1.85-2,4.87-1.37,9.78,1.34,9.82-5.25,16.07-8.14,18.31-6.41,4.94-16.88,8.77-17,8.81a3,3,0,0,0-2,2.61l-3.27,45.75a3,3,0,0,0,1.08,2.52l1.4,1.16a47.55,47.55,0,0,0,29.91,10.89c4.74,0,8.88.06,12.3.06,10.53,0,11.54-.17,12-.25a14.12,14.12,0,0,0,9.89-5.89,9,9,0,0,0,1.88-6.23c1.76-1.57,4.36-4.41,5.14-7.93a11.78,11.78,0,0,0-1.11-7.88,29.93,29.93,0,0,0,2.73-4.5,10.63,10.63,0,0,0,.49-8,18.66,18.66,0,0,0,3.25-4.64c1.62-3.24.61-7.15-.14-9.19-.5-1.37-2.42-6-6-7.51-2.91-1.25-17.66-2-27.09-2.42,1.4-3.74,3.16-9.46,3.23-14.86.07-5.75-.33-12.35-6-18-2.85-2.85-5.31-4.23-7.53-4.23Z" style="fill:#263238"></path><rect x="326.13" y="99.52" width="38.75" height="57.89" style="fill:#263238;stroke:#263238;stroke-linecap:round;stroke-linejoin:round"></rect></g><g id="freepik--Floor--inject-2"><line x1="457.68" y1="461.15" x2="470.12" y2="461.15" style="fill:none;stroke:#263238;stroke-linecap:round;stroke-linejoin:round"></line><line x1="28.52" y1="461.15" x2="447.57" y2="461.15" style="fill:none;stroke:#263238;stroke-linecap:round;stroke-linejoin:round"></line></g></svg>
