<?xml version="1.0" encoding="iso-8859-1"?>
<!-- Generator: Adobe Illustrator 19.0.0, SVG Export Plug-In . SVG Version: 6.00 Build 0)  -->
<svg version="1.1" id="Layer_1" xmlns="http://www.w3.org/2000/svg" xmlns:xlink="http://www.w3.org/1999/xlink" x="0px" y="0px"
	 viewBox="0 0 338.784 338.784" style="enable-background:new 0 0 338.784 338.784;" xml:space="preserve">
<g>
	<g>
		<g>
			<path d="M18.93,168.462C18.93,85.497,86.427,18,169.392,18c41.483,0,80.871,17.046,109.254,47.017h-7.688c-4.971,0-9,4.029-9,9
				c0,4.971,4.029,9,9,9h30.522c4.971,0,9-4.029,9-9V43.494c0-4.971-4.029-9-9-9s-9,4.029-9,9v9.971
				C260.649,19.401,216.217,0,169.392,0C76.502,0,0.93,75.572,0.93,168.462c0,40.967,14.882,80.454,41.903,111.188
				c1.779,2.023,4.264,3.057,6.763,3.057c2.109,0,4.229-0.738,5.938-2.241c3.733-3.282,4.099-8.969,0.816-12.702
				C32.22,240.318,18.93,205.052,18.93,168.462z"/>
			<path d="M327.121,109.168c-1.75-4.653-6.943-7.006-11.592-5.256c-4.652,1.75-7.006,6.939-5.256,11.592
				c6.357,16.905,9.581,34.723,9.581,52.958c0,82.965-67.497,150.461-150.462,150.461c-24.007,0-47.843-5.792-69.014-16.738
				l8.134-2.88c4.685-1.66,7.138-6.803,5.479-11.488c-1.659-4.687-6.808-7.138-11.488-5.479l-28.771,10.189
				c-4.685,1.66-7.138,6.803-5.479,11.488l10.189,28.771c1.308,3.692,4.777,5.998,8.483,5.998c0.997,0,2.012-0.167,3.005-0.519
				c4.685-1.66,7.138-6.803,5.479-11.488l-2.993-8.45c23.641,12.16,50.217,18.596,76.976,18.596
				c92.891,0,168.462-75.571,168.462-168.461C337.854,148.056,334.243,128.106,327.121,109.168z"/>
			<path d="M169.392,56.371c-61.132,0-110.866,49.734-110.866,110.866c0,61.131,49.734,110.866,110.866,110.866
				s110.866-49.734,110.866-110.866C280.259,106.105,230.524,56.371,169.392,56.371z M254.504,176.237h7.317
				c-4.255,44.037-39.392,79.174-83.429,83.429v-7.317c0-4.971-4.029-9-9-9c-4.971,0-9,4.029-9,9v7.317
				c-44.037-4.255-79.174-39.392-83.429-83.428h7.317c4.971,0,9-4.029,9-9s-4.029-9-9-9h-7.317
				c4.255-44.037,39.392-79.174,83.429-83.429v7.317c0,4.971,4.029,9,9,9c4.971,0,9-4.029,9-9v-7.317
				c44.037,4.255,79.174,39.392,83.429,83.428h-7.317c-4.971,0-9,4.029-9,9C245.504,172.208,249.533,176.237,254.504,176.237z"/>
			<path d="M209.864,167.286h-6.303h-25.169v-35.939v-12.851c0-4.971-4.029-9-9-9c-4.971,0-9,4.029-9,9v57.79c0,4.971,4.029,9,9,9
				h40.472c4.971,0,9-4.029,9-9S214.835,167.286,209.864,167.286z"/>
		</g>
	</g>
</g>
<g>
</g>
<g>
</g>
<g>
</g>
<g>
</g>
<g>
</g>
<g>
</g>
<g>
</g>
<g>
</g>
<g>
</g>
<g>
</g>
<g>
</g>
<g>
</g>
<g>
</g>
<g>
</g>
<g>
</g>
</svg>
