<svg width="45" height="25" viewBox="0 0 45 25" fill="none" xmlns="http://www.w3.org/2000/svg"><g clip-path="url(#clip0_389_5479)"><path fill-rule="evenodd" clip-rule="evenodd" d="M17.7323 13.9799C18.4853 13.6574 19.3882 13.5774 20.2029 13.1749C20.9147 12.8249 21.6794 12.3099 22.0588 11.8599C22.4853 12.0149 23.0382 12.4049 23.5441 12.6499C24.95 13.3349 27.0558 13.9449 28.6294 14.2924C31.0235 14.8224 34.1117 15.0824 35.5117 16.4274C36.9029 17.7649 35.7705 20.3999 31.5647 20.1624C28.5441 19.9899 27.3911 18.4249 26.9588 16.1249L21.3235 16.4024C21.0088 15.9924 20.2088 15.1274 19.85 14.8974C19.1088 14.4249 18.5588 14.3549 17.7323 13.9799ZM8.22643 5.15243C9.63819 5.13993 11.3088 5.08993 12.697 5.17743C16.7 5.42243 16.1147 8.31743 14.9823 9.33493C13.8117 10.3849 10.0323 10.1824 8.22643 10.1724V5.15243ZM42.3617 11.7999C41.8941 11.5549 41.5117 11.2724 41.0088 11.0099C37.5764 9.19993 33.3 8.97993 29.7029 8.01243C26.5117 7.15243 27.7 4.81243 30.4235 4.62993C33.4235 4.42993 34.8382 5.48243 35.3764 7.68993L43.8176 7.28743C43.9264 6.30743 43.0235 4.48993 42.5323 3.82243C41.7794 2.79993 41.0617 2.21993 39.8176 1.57743C37.85 0.564925 33.3764 -0.117575 30.6441 0.204925C29.9294 0.0524254 26.6853 0.547425 25.9294 0.737425C25.1794 0.924925 24.6353 1.10743 23.9794 1.38993C23.1294 1.75743 22.7647 2.04993 22.2647 2.27493C21.6911 1.91993 21.3882 1.48743 20.5264 1.11493C18.1647 0.0949255 14.9853 0.159925 12.347 0.159925C8.19408 0.159925 4.04114 0.159925 -0.114746 0.159925V24.8749H8.22643V14.8474C11.5647 14.8124 11.8588 16.2149 13.5029 19.0199C14.0705 19.9849 14.6294 20.9324 15.2 21.9049C15.6382 22.6549 16.6588 24.1774 16.9 24.8699L26.2853 24.8749L26.0735 24.4174C26.3147 24.4199 28.7735 24.7799 30.1617 24.8374C35.1382 25.0499 40.8941 24.4549 43.6117 20.4674C44.2029 19.5974 44.6205 18.6349 44.7676 17.4849C44.9235 16.2799 44.7294 15.1374 44.2235 14.0974C43.9853 13.6074 43.7205 13.2249 43.4058 12.8524C42.9794 12.3474 42.3853 11.9849 42.3617 11.7999Z" fill=""></path></g><defs><clipPath id="clip0_389_5479"><rect width="45" height="25" fill="white"></rect></clipPath></defs></svg>